PathFileType	4	(X/Y/Z)	C:/Users/opensim2020/Desktop/walking_exp_matlab/subject01_walking14_straight_01.trc	
DataRate	CameraRate	NumFrames	NumMarkers	Units	OrigDataRate	OrigDataStartFrame	OrigNumFrames	
100.00	100.00	8	42	mm	100.00	731	106	
Frame#	Time	LFHD			RFHD			LBHD			RBHD			C7			T10			CLAV			STRN			RBAK			LSHO			LUPA			LELB			LFRM			LWRA			LWRB			LFIN			RSHO			RUPA			RELB			RFRM			RWRA			RWRB			RFIN			LASI			RASI			LPSI			RPSI			LTHI			LKNE			LTIB			LANK			LHEE			LTOE			RTHI			RKNE			RTIB			RANK			RHEE			RTOE			*39			*40			*41			
		X1	Y1	Z1	X2	Y2	Z2	X3	Y3	Z3	X4	Y4	Z4	X5	Y5	Z5	X6	Y6	Z6	X7	Y7	Z7	X8	Y8	Z8	X9	Y9	Z9	X10	Y10	Z10	X11	Y11	Z11	X12	Y12	Z12	X13	Y13	Z13	X14	Y14	Z14	X15	Y15	Z15	X16	Y16	Z16	X17	Y17	Z17	X18	Y18	Z18	X19	Y19	Z19	X20	Y20	Z20	X21	Y21	Z21	X22	Y22	Z22	X23	Y23	Z23	X24	Y24	Z24	X25	Y25	Z25	X26	Y26	Z26	X27	Y27	Z27	X28	Y28	Z28	X29	Y29	Z29	X30	Y30	Z30	X31	Y31	Z31	X32	Y32	Z32	X33	Y33	Z33	X34	Y34	Z34	X35	Y35	Z35	X36	Y36	Z36	X37	Y37	Z37	X38	Y38	Z38	X39	Y39	Z39	X40	Y40	Z40	X41	Y41	Z41	X42	Y42	Z42	

54	0.530	1503.18127	-158.13861	1665.78784	1606.22766	-110.72018	1665.68774	1543.66870	-263.37238	1612.84973	1653.42249	-215.35184	1611.05225	1558.13513	-289.44629	1425.25098	1549.86780	-335.75275	1133.86328	1542.98486	-147.52849	1353.10669	1528.02319	-109.14933	1198.25928	1624.37732	-344.91641	1229.59583	1389.45935	-218.65202	1390.48901	1293.91846	-253.31834	1214.15637	1279.79065	-265.18393	1060.10034	1257.30225	-175.00499	983.17480	1273.55542	-46.66132	935.38922	1256.44006	-88.51551	896.97174	1241.48755	-11.06834	868.63953	1700.28979	-198.65233	1377.28613	1792.94250	-272.44864	1179.23706	1792.90222	-278.68735	1054.92065	1820.00183	-266.38055	935.29205	1796.17773	-206.01065	807.97760	1835.73584	-247.27895	814.59979	1838.41333	-219.19823	734.35175	1427.61133	-178.19669	919.19513	1641.16125	-152.89319	930.95020	1501.18823	-356.98779	931.11523	1645.72083	-339.74347	940.35651	1371.08081	-209.58044	580.85632	1376.83997	-220.54092	448.18613	1374.12952	-374.47000	348.41119	1437.81506	-551.91217	230.09860	1496.49829	-578.97620	257.69690	1443.48926	-556.47925	79.00648	1707.44189	-152.31679	601.63385	1682.54968	-105.51942	450.91208	1695.19592	-148.06462	278.80173	1649.98877	-168.03455	73.89699	1606.06873	-221.41600	36.01914	1639.94885	-28.01348	34.67551	1591.73950	-130.40388	1699.51489	-3101.98804	1973.06091	1023.42151	-3140.68457	2012.48779	1022.04187 
55	0.540	1503.46887	-144.55792	1667.57190	1606.45459	-96.88424	1667.35901	1544.17249	-249.82169	1615.06482	1653.83069	-201.66910	1613.07361	1558.81152	-276.19971	1426.97400	1551.01001	-322.52463	1135.71375	1542.99292	-134.40477	1354.93701	1528.12878	-96.14317	1200.06201	1625.78894	-331.40845	1231.72864	1389.82104	-206.12048	1392.10828	1294.88745	-242.31906	1215.89038	1281.76904	-255.02477	1061.38965	1258.55945	-167.74338	981.56659	1273.79895	-40.67654	929.68268	1257.18420	-83.92828	892.56445	1241.86206	-7.52642	861.61884	1700.55774	-184.72374	1379.43335	1794.25903	-256.10526	1181.02368	1794.24719	-261.30588	1056.36963	1820.92676	-246.12746	936.85272	1796.37268	-183.00209	811.18140	1836.16187	-224.22313	816.56561	1838.63965	-194.12634	737.18646	1428.13501	-164.97780	921.38727	1642.29956	-140.25856	932.23999	1501.60962	-343.89206	932.68842	1646.01868	-326.99033	942.02478	1369.98303	-187.17735	583.99091	1375.96179	-194.44725	451.91214	1374.72961	-347.86630	351.79794	1439.72742	-524.51923	233.50943	1499.46936	-552.37012	258.75156	1438.57959	-525.52551	82.49773	1709.04468	-143.66331	603.07690	1683.15100	-101.00393	450.21634	1695.44824	-146.23495	278.08762	1649.96191	-167.70090	74.01447	1605.68274	-221.52408	36.67941	1639.90930	-27.82968	34.57606	1592.06982	-116.35100	1701.31226	-3101.97876	1972.99500	1023.76367	-3140.74097	2012.49341	1021.93140 
56	0.550	1503.50000	-130.87027	1669.31848	1606.45764	-83.06860	1669.03271	1544.38208	-236.31050	1617.16223	1653.98572	-187.99736	1615.16248	1559.53748	-263.17957	1428.86438	1552.13696	-309.34885	1137.58423	1543.00562	-121.27615	1356.77551	1528.16858	-83.01452	1201.85327	1627.18787	-317.98358	1233.77844	1390.20703	-193.78108	1393.74500	1295.89648	-231.66135	1217.47302	1283.67273	-244.77534	1062.96387	1260.11719	-160.67529	979.96106	1274.19385	-35.13316	923.99988	1257.91003	-79.89460	888.25122	1242.21497	-4.59054	854.69922	1700.74036	-170.90216	1381.65735	1795.45239	-239.89354	1182.91760	1795.51294	-244.02705	1057.93616	1821.70972	-225.84183	938.55963	1796.38074	-159.96507	814.61951	1836.39294	-201.00047	818.83899	1838.73340	-168.83267	740.36249	1428.86707	-151.70799	923.72150	1643.45105	-127.73690	933.38147	1501.94885	-330.76669	934.57330	1646.54773	-314.73367	944.23193	1368.86157	-164.89424	587.89587	1375.20605	-168.76132	455.98730	1376.00171	-321.22507	355.06763	1441.22974	-496.60934	235.29604	1502.33398	-525.24646	258.06461	1434.63489	-492.83957	85.07960	1709.26929	-135.92494	603.33447	1683.58337	-96.60488	449.44012	1695.99146	-143.81859	277.73856	1649.91553	-167.36679	74.08981	1605.94104	-221.27867	37.28624	1639.97803	-27.65687	34.57836	1592.04895	-102.43265	1703.05945	-3102.10327	1973.05066	1024.11646	-3140.72607	2012.45996	1022.17975 
57	0.560	1503.20557	-117.31998	1670.89429	1606.17078	-69.28445	1670.65735	1544.47388	-222.63673	1619.11877	1653.95313	-174.36311	1617.29138	1560.05212	-249.96935	1430.48950	1553.21606	-296.26993	1139.36145	1542.83606	-108.27435	1358.56018	1528.20959	-70.02555	1203.66541	1628.49695	-304.53299	1235.72485	1390.46509	-181.61053	1395.37146	1296.85864	-220.95370	1218.94641	1285.34021	-234.77640	1064.36768	1261.46716	-153.88211	978.60016	1274.57141	-30.17356	918.16681	1258.53015	-76.32545	884.09302	1242.63574	-2.35055	847.79901	1700.93115	-157.11079	1383.92542	1796.44104	-223.95103	1184.81885	1796.74561	-226.98682	1059.68225	1822.40857	-205.69577	940.49988	1796.41577	-136.57028	818.55914	1836.45435	-177.64330	821.46564	1838.60303	-143.31406	744.03400	1429.64746	-138.52533	925.84473	1644.66638	-115.26793	934.48462	1502.07141	-317.66071	936.65466	1646.57080	-302.04028	945.63348	1367.90442	-142.90968	591.78284	1374.48755	-143.41400	460.10501	1377.50476	-294.40280	357.97324	1442.49036	-468.16382	235.28978	1504.76428	-498.02258	255.50604	1431.21472	-458.57385	86.24183	1709.50439	-127.71398	603.52655	1683.95715	-92.12776	448.94803	1696.09351	-140.58188	277.56152	1649.97412	-166.98804	74.26237	1605.99597	-221.23563	37.97599	1640.03015	-27.48626	34.50633	1591.70642	-88.55253	1704.74060	-3102.03027	1973.14099	1023.60980	-3140.76855	2012.48657	1022.19897 
58	0.570	1502.71912	-103.76261	1672.43787	1605.62561	-55.57972	1672.25635	1544.24597	-209.42090	1621.22009	1653.73315	-160.75999	1619.37439	1560.69971	-236.79210	1432.23254	1554.20959	-283.11450	1141.03088	1542.76440	-95.29131	1360.28064	1528.19421	-57.12948	1205.33447	1629.81287	-291.17529	1237.70691	1390.75171	-169.55501	1396.94299	1297.85828	-210.32721	1220.33997	1287.01074	-224.84518	1065.94080	1262.41992	-147.11739	977.54065	1274.67285	-25.66734	912.50067	1259.04944	-73.15480	880.45001	1243.19189	-0.26193	841.09985	1701.01575	-143.43486	1386.12561	1797.44153	-208.20139	1186.83252	1797.90405	-210.01166	1061.44702	1822.99304	-185.64142	942.54364	1796.24670	-113.16845	822.68964	1836.31775	-154.27464	824.23621	1838.36865	-117.57516	747.99817	1430.69507	-125.18056	928.10693	1645.85303	-102.86111	935.53186	1502.04944	-304.61203	938.82611	1646.85132	-290.10574	947.95868	1367.16077	-121.40133	595.66241	1373.79749	-118.47417	464.17709	1379.03711	-267.78275	360.56821	1443.60132	-439.43997	233.86208	1506.78662	-470.74832	251.79936	1428.45703	-422.12000	86.31784	1709.59851	-119.75021	603.70825	1683.90356	-87.90659	448.41217	1696.40466	-136.82687	277.98898	1649.96375	-166.61147	74.67525	1606.04175	-221.03551	38.17411	1640.09680	-27.32801	34.50492	1591.08032	-74.76437	1706.37927	-3102.02954	1973.03674	1023.45422	-3140.61914	2012.51843	1022.22516 
59	0.580	1502.02539	-90.37391	1673.75110	1604.84998	-41.87022	1673.72961	1544.02539	-196.16718	1623.16626	1653.36597	-147.20390	1621.40344	1561.23584	-223.74457	1433.81116	1555.09546	-270.11285	1142.64636	1542.55481	-82.40820	1361.83203	1528.19983	-44.16594	1206.98230	1630.99219	-277.71286	1239.57385	1390.90271	-157.58400	1398.39270	1298.75500	-199.45360	1221.57080	1288.72205	-215.01080	1067.59070	1263.76379	-140.70967	976.62140	1275.10168	-21.53413	906.96606	1259.58679	-70.37654	876.79773	1243.59534	0.91011	834.54449	1701.07886	-129.73399	1388.28784	1798.32800	-192.63206	1188.79395	1799.06238	-193.22726	1063.25024	1823.46765	-165.69453	944.67365	1795.99902	-89.69653	827.18787	1836.05884	-130.84430	827.32428	1837.75317	-91.85204	752.13245	1431.72803	-112.29113	929.99261	1647.03003	-90.52778	936.64136	1501.83252	-291.53415	940.99066	1646.52319	-277.44617	949.51483	1366.34546	-100.38873	599.75323	1373.10767	-94.09476	468.31274	1380.05298	-242.04491	363.04669	1444.75403	-410.23151	231.04234	1508.22498	-443.00122	246.15634	1426.63049	-383.64771	85.08019	1709.54077	-112.24796	604.03064	1683.59485	-83.76572	447.92361	1695.85999	-133.79294	277.86142	1649.87036	-166.20544	74.98386	1605.74609	-220.78041	38.61930	1640.14038	-27.18536	34.46455	1590.19580	-60.98731	1707.93701	-3102.04639	1973.16785	1023.55078	-3140.79346	2012.54834	1022.13257 
60	0.590	1501.14795	-76.98779	1674.91296	1603.87976	-28.20729	1675.08813	1543.60107	-182.86473	1624.90710	1652.84094	-133.65929	1623.35339	1561.73767	-210.73938	1435.26074	1555.82935	-257.15378	1144.10632	1542.39417	-69.61510	1363.42383	1528.13965	-31.23996	1208.45544	1632.20667	-264.33450	1241.27539	1391.06104	-145.64047	1399.75000	1299.62122	-188.54681	1222.84167	1290.41211	-205.34550	1069.05615	1264.82190	-134.34647	975.92749	1275.25732	-17.65693	901.67865	1260.15686	-67.84081	873.42511	1243.99121	1.68878	828.12915	1701.04761	-116.15139	1390.31641	1799.14612	-177.31184	1190.70789	1800.16467	-176.54872	1064.97876	1823.86230	-145.77762	946.79333	1795.61523	-66.26093	831.87109	1835.59558	-107.42860	830.48669	1837.10107	-65.92799	756.71735	1432.89417	-98.60479	932.09265	1648.40576	-78.14287	937.60815	1501.49329	-278.56213	943.01337	1646.11963	-265.02237	951.22076	1365.62756	-79.85541	603.67719	1372.36877	-70.57600	472.43567	1381.28894	-216.69893	365.17221	1445.75220	-380.21713	226.62556	1509.15515	-414.67844	238.59837	1425.72681	-342.88071	83.21198	1709.53650	-105.28249	604.55750	1683.52808	-79.56915	447.76761	1695.94543	-130.95900	278.39886	1649.81628	-165.91852	75.35322	1605.48706	-220.64737	39.14447	1640.24524	-27.04425	34.36602	1589.13684	-47.21162	1709.36731	-3101.98438	1973.14661	1023.57666	-3140.71826	2012.56763	1022.13019 
61	0.600	1500.20667	-63.66348	1675.97009	1602.77380	-14.57399	1676.34033	1543.07251	-169.65691	1626.48291	1652.17432	-120.10894	1625.17322	1562.12927	-197.84299	1436.46912	1556.48853	-244.18527	1145.41797	1542.23853	-56.82626	1364.86084	1528.15881	-18.33186	1209.87903	1633.27405	-250.85590	1242.83801	1391.14099	-133.62837	1401.00464	1300.21362	-177.59355	1223.97424	1292.17480	-195.85106	1070.60522	1266.14966	-128.18045	975.26605	1275.40857	-14.21193	896.52148	1260.59766	-65.92066	870.30267	1244.38867	1.95866	821.94598	1700.93152	-102.63282	1392.24963	1799.93213	-162.13121	1192.56372	1801.15161	-159.98671	1066.58545	1824.16772	-125.91936	948.99292	1795.19324	-42.57776	836.90338	1834.97546	-83.95233	833.78809	1836.17700	-40.06023	761.42633	1433.97986	-85.18398	934.00098	1649.68323	-65.48212	938.90253	1501.06250	-265.54391	944.90979	1645.44165	-252.67038	952.79419	1364.91504	-59.98506	607.58264	1371.81799	-47.80230	476.56458	1382.72925	-191.65685	366.73056	1446.29456	-349.14087	220.44656	1509.88379	-385.49109	229.69151	1424.89880	-301.67084	81.13319	1709.55896	-98.69574	604.81927	1683.42017	-75.80004	447.52087	1695.92224	-129.37122	278.76971	1649.66992	-165.66885	75.77816	1604.93787	-220.55025	40.09016	1640.31799	-26.95574	34.32663	1587.91101	-33.48549	1710.66162	-3101.99023	1973.15271	1023.34650	-3140.63647	2012.58838	1022.00720 
